<svg width="64" height="64" viewBox="0 0 64 64" fill="none" xmlns="http://www.w3.org/2000/svg">
  <defs>
    <linearGradient id="brand-gradient" x1="10" y1="8" x2="56" y2="56" gradientUnits="userSpaceOnUse">
      <stop stop-color="#0F172A" />
      <stop offset="0.58" stop-color="#1D4ED8" />
      <stop offset="1" stop-color="#60A5FA" />
    </linearGradient>
    <radialGradient id="brand-glow" cx="0" cy="0" r="1" gradientUnits="userSpaceOnUse" gradientTransform="translate(32 22) rotate(90) scale(30)">
      <stop stop-color="white" stop-opacity="0.28" />
      <stop offset="1" stop-color="white" stop-opacity="0" />
    </radialGradient>
  </defs>
  <rect x="4" y="4" width="56" height="56" rx="16" fill="url(#brand-gradient)" />
  <rect x="4" y="4" width="56" height="56" rx="16" fill="url(#brand-glow)" />
  <rect x="14" y="14" width="36" height="36" rx="13" stroke="white" stroke-opacity="0.16" stroke-width="2" />
  <g transform="translate(10 10) scale(1.8333333333)" stroke="white" stroke-width="2" stroke-linecap="round" stroke-linejoin="round">
    <path d="M11.017 2.814a1 1 0 0 1 1.966 0l1.051 5.558a2 2 0 0 0 1.594 1.594l5.558 1.051a1 1 0 0 1 0 1.966l-5.558 1.051a2 2 0 0 0-1.594 1.594l-1.051 5.558a1 1 0 0 1-1.966 0l-1.051-5.558a2 2 0 0 0-1.594-1.594l-5.558-1.051a1 1 0 0 1 0-1.966l5.558-1.051a2 2 0 0 0 1.594-1.594z" />
    <path d="M20 2v4" />
    <path d="M22 4h-4" />
    <circle cx="4" cy="20" r="2" />
  </g>
</svg>
